<?xml version="1.0" encoding="iso-8859-1"?>
<!-- Generator: Adobe Illustrator 19.0.0, SVG Export Plug-In . SVG Version: 6.00 Build 0)  -->
<svg xmlns="http://www.w3.org/2000/svg" xmlns:xlink="http://www.w3.org/1999/xlink" version="1.1" id="Capa_1" x="0px" y="0px" viewBox="0 0 496 496" style="enable-background:new 0 0 496 496;" xml:space="preserve" width="512px" height="512px">
<g>
	<g>
		<path d="M392,272c-13.232,0-24,10.768-24,24s10.768,24,24,24s24-10.768,24-24S405.232,272,392,272z M392,304c-4.408,0-8-3.584-8-8    c0-4.416,3.592-8,8-8c4.408,0,8,3.584,8,8C400,300.416,396.408,304,392,304z" fill="#FFFFFF"/>
	</g>
</g>
<g>
	<g>
		<path d="M448,120v8h-16v-4.944L393.888,104H162.424l-24-16H64c0-8.824-7.176-16-16-16H16C7.176,72,0,79.176,0,88v224    c0,8.824,7.176,16,16,16h32c8.824,0,16-7.176,16-16h74.424l24-16H336c0,18.976,9.512,35.76,24,45.888V360.8l-152,16V424h192    c13.232,0,24-10.768,24-24v-58.112c14.488-10.136,24-26.912,24-45.888c0-8.592-2.008-16.712-5.48-24H448v8h48V120H448z M48,312H16    V88h32V312z M176,280h-18.424L144,289.056V144h-16v152H96v-16H80v16H64V104h16v160h16V104h32v24h16v-17.056L157.576,120H176V280z     M224,280h-32v-24h32V280z M224,240h-32v-16h32V240z M224,208h-32v-16h32V208z M224,176h-32v-16h32V176z M224,144h-32v-24h32V144z     M272,280h-32V120h32V280z M320,280h-32v-24h32V280z M320,240h-32v-16h32V240z M320,208h-32v-16h32V208z M320,176h-32v-16h32V176z     M320,144h-32v-24h32V144z M400,124.944l16,8V245.48c-4.976-2.376-10.352-4.032-16-4.84V124.944z M336,280V120h16v40h16v-40h16    v120.64c-5.648,0.816-11.024,2.464-16,4.84V240h-16v16.888c-6.272,6.408-11.008,14.304-13.64,23.112H336z M224,408v-16.8    l141.04-14.848L396.688,408H224z M408,396.688l-32-32V349.64c5.072,1.52,10.44,2.36,16,2.36s10.928-0.84,16-2.36V396.688z     M392,336c-22.056,0-40-17.944-40-40c0-22.056,17.944-40,40-40c22.056,0,40,17.944,40,40C432,318.056,414.056,336,392,336z     M448,256h-16v0.888c-0.288-0.296-0.584-0.592-0.888-0.888H432V144h16V256z M480,264h-16V136h16V264z" fill="#FFFFFF"/>
	</g>
</g>
<g>
	<g>
		<rect x="352" y="176" width="16" height="16" fill="#FFFFFF"/>
	</g>
</g>
<g>
	<g>
		<rect x="352" y="208" width="16" height="16" fill="#FFFFFF"/>
	</g>
</g>
<g>
</g>
<g>
</g>
<g>
</g>
<g>
</g>
<g>
</g>
<g>
</g>
<g>
</g>
<g>
</g>
<g>
</g>
<g>
</g>
<g>
</g>
<g>
</g>
<g>
</g>
<g>
</g>
<g>
</g>
</svg>
