<svg xmlns="http://www.w3.org/2000/svg" width="500" height="394" viewBox="0 0 500 394">
  <metadata><?xpacket begin="﻿" id="W5M0MpCehiHzreSzNTczkc9d"?>
<x:xmpmeta xmlns:x="adobe:ns:meta/" x:xmptk="Adobe XMP Core 5.6-c138 79.159824, 2016/09/14-01:09:01        ">
   <rdf:RDF xmlns:rdf="http://www.w3.org/1999/02/22-rdf-syntax-ns#">
      <rdf:Description rdf:about=""/>
   </rdf:RDF>
</x:xmpmeta>
                                                                                                    
                                                                                                    
                                                                                                    
                                                                                                    
                                                                                                    
                                                                                                    
                                                                                                    
                                                                                                    
                                                                                                    
                                                                                                    
                                                                                                    
                                                                                                    
                                                                                                    
                                                                                                    
                                                                                                    
                                                                                                    
                                                                                                    
                                                                                                    
                                                                                                    
                                                                                                    
                           
<?xpacket end="w"?></metadata>
<defs>
    <style>
      .cls-1 {
        fill: #ebebeb;
        fill-rule: evenodd;
      }
    </style>
  </defs>
  <path id="Letter" class="cls-1" d="M472.1,199.392q-91.52,62.12-138.951,96.536-15.9,11.752-25.809,18.328t-26.367,13.431q-16.467,6.859-30.692,6.856h-0.558q-14.231,0-30.692-6.856t-26.367-13.431q-9.908-6.571-25.809-18.328-37.668-27.7-138.672-96.536A147.935,147.935,0,0,1,0,175.049V397.221A43.165,43.165,0,0,0,13.114,428.84a42.93,42.93,0,0,0,31.529,13.151H455.357A44.838,44.838,0,0,0,500,397.221V175.049a154.064,154.064,0,0,1-27.9,24.343h0ZM486.747,61.164q-13.255-13.149-31.39-13.151H44.643q-21.489,0-33.064,14.55T0,98.939q0,17.628,15.346,38.195t32.645,32.318q9.482,6.716,57.2,39.874t73.1,51.066q2.787,1.961,11.859,8.534t15.067,10.633q6,4.06,14.509,9.094a84.34,84.34,0,0,0,16.043,7.555,44.212,44.212,0,0,0,13.951,2.519h0.558a44.232,44.232,0,0,0,13.951-2.519,84.482,84.482,0,0,0,16.043-7.555q8.508-5.037,14.509-9.094t15.067-10.633q9.065-6.571,11.859-8.534,25.666-17.9,130.58-90.94a132.91,132.91,0,0,0,34.04-34.417Q500,114.889,500,92.783A42.964,42.964,0,0,0,486.747,61.164Z" transform="translate(0 -48)"/>
</svg>
