<svg xmlns="http://www.w3.org/2000/svg" width="299.562" height="499.781" viewBox="0 0 299.562 499.781">
  <metadata><?xpacket begin="﻿" id="W5M0MpCehiHzreSzNTczkc9d"?>
<x:xmpmeta xmlns:x="adobe:ns:meta/" x:xmptk="Adobe XMP Core 5.6-c138 79.159824, 2016/09/14-01:09:01        ">
   <rdf:RDF xmlns:rdf="http://www.w3.org/1999/02/22-rdf-syntax-ns#">
      <rdf:Description rdf:about=""/>
   </rdf:RDF>
</x:xmpmeta>
                                                                                                    
                                                                                                    
                                                                                                    
                                                                                                    
                                                                                                    
                                                                                                    
                                                                                                    
                                                                                                    
                                                                                                    
                                                                                                    
                                                                                                    
                                                                                                    
                                                                                                    
                                                                                                    
                                                                                                    
                                                                                                    
                                                                                                    
                                                                                                    
                                                                                                    
                                                                                                    
                           
<?xpacket end="w"?></metadata>
<defs>
    <style>
      .cls-1 {
        fill: #ebebeb;
        fill-rule: evenodd;
      }
    </style>
  </defs>
  <path id="Phone" class="cls-1" d="M250.1,481.115a31.312,31.312,0,1,1,22.04-9.175A30.021,30.021,0,0,1,250.1,481.115ZM358.733,396.19a11.988,11.988,0,0,1-8.777,3.709H150.234a12.662,12.662,0,0,1-12.483-12.494V112.519a12.664,12.664,0,0,1,12.483-12.5H349.956a12.664,12.664,0,0,1,12.483,12.5V387.405A12.012,12.012,0,0,1,358.733,396.19ZM281.3,62.54H218.888q-6.245,0-6.241-6.247t6.241-6.247H281.3q6.234,0,6.241,6.247T281.3,62.54h0ZM385.064,14.9Q370.234,0.069,349.956.066H150.234q-20.287,0-35.108,14.838T100.3,50.045V449.878q0,20.308,14.823,35.142t35.108,14.838H349.956q20.279,0,35.108-14.838t14.823-35.142V50.045Q399.887,29.747,385.064,14.9Z" transform="translate(-100.313 -0.063)"/>
</svg>
